<svg width="734" height="262" viewBox="0 0 734 262" fill="none" xmlns="http://www.w3.org/2000/svg">
<path d="M140.69 75.2022C138.366 74.942 136.437 73.1783 135.901 70.824C135.076 67.1997 137.818 63.8283 141.407 64.0547L143.149 64.1646C155.467 64.9417 166.73 71.941 173.247 82.8679L173.856 83.8885C175.588 86.7923 174.382 90.5583 171.339 91.7526C169.084 92.6373 166.508 91.803 165.103 89.7333L163.487 87.3524C159.013 80.7609 152.005 76.4691 144.306 75.6072L140.69 75.2022Z" fill="#46A7E1"/>
<path d="M149.004 60.7431C146.68 60.4829 144.751 58.7192 144.215 56.3649C143.391 52.7406 146.133 49.3692 149.721 49.5956L151.464 49.7055C163.781 50.4826 175.045 57.4819 181.562 68.4088L182.17 69.4294C183.902 72.3331 182.697 76.0992 179.653 77.2935C177.399 78.1782 174.822 77.3439 173.417 75.2742L171.802 72.8932C167.328 66.3018 160.319 62.01 152.621 61.148L149.004 60.7431Z" fill="#46A7E1"/>
<path fill-rule="evenodd" clip-rule="evenodd" d="M10.3932 114.245L40.8798 169.343L40.9432 169.305C46.713 179.59 59.3688 183.097 69.2742 177.129C79.2161 171.14 82.6224 157.875 76.8825 147.501C76.5873 146.968 76.2737 146.453 75.943 145.956L46.4023 92.5669C46.4002 92.5632 46.3981 92.5594 46.396 92.5557C46.396 92.5556 46.396 92.5556 46.3959 92.5555C40.656 82.1817 27.9433 78.6274 18.0014 84.6167C8.05951 90.606 4.65316 103.871 10.3931 114.245C10.3932 114.245 10.3932 114.245 10.3932 114.245Z" fill="white"/>
<path fill-rule="evenodd" clip-rule="evenodd" d="M123.962 92.5175L123.962 92.5176C129.702 82.1439 142.414 78.5897 152.356 84.579C162.298 90.5683 165.704 103.833 159.965 114.207L159.93 114.27L130.418 167.605C130.171 168.153 129.9 168.695 129.604 169.229C125.533 176.587 117.953 180.515 110.342 180.038C103.138 180.099 96.1093 176.245 92.2159 169.305L92.1525 169.343L61.6736 114.259L61.6658 114.245C55.9258 103.871 59.3322 90.606 69.2741 84.6167C79.216 78.6274 91.9286 82.1817 97.6686 92.5555L97.6687 92.5556L110.805 116.296L123.962 92.5175Z" fill="white"/>
<path d="M209.782 83.5L234.907 148L261.157 78.8125L286.282 148L312.969 83.5H328.782L285.657 186.125L260.844 117.75L234.969 186.188L193.969 83.5H209.782ZM327.219 149.125C327.219 140.333 330.365 132.854 336.657 126.688C342.949 120.521 350.615 117.438 359.657 117.438C368.74 117.438 376.449 120.542 382.782 126.75C389.032 132.958 392.157 140.583 392.157 149.625C392.157 158.75 389.011 166.396 382.719 172.562C376.386 178.688 368.615 181.75 359.407 181.75C350.282 181.75 342.636 178.625 336.469 172.375C330.303 166.208 327.219 158.458 327.219 149.125ZM341.594 149.375C341.594 155.458 343.219 160.271 346.469 163.812C349.803 167.396 354.199 169.188 359.657 169.188C365.157 169.188 369.553 167.417 372.844 163.875C376.136 160.333 377.782 155.604 377.782 149.688C377.782 143.771 376.136 139.042 372.844 135.5C369.511 131.917 365.115 130.125 359.657 130.125C354.282 130.125 349.928 131.917 346.594 135.5C343.261 139.083 341.594 143.708 341.594 149.375ZM407.094 119.125H421.157V124.563C423.74 121.854 426.032 120 428.032 119C430.074 117.958 432.49 117.438 435.282 117.438C438.99 117.438 442.865 118.646 446.907 121.063L440.469 133.938C437.803 132.021 435.199 131.062 432.657 131.062C424.99 131.062 421.157 136.854 421.157 148.438V180H407.094V119.125ZM528.969 88.6875V105.938C520.553 98.8958 511.844 95.375 502.844 95.375C492.928 95.375 484.574 98.9375 477.782 106.063C470.949 113.146 467.532 121.813 467.532 132.062C467.532 142.188 470.949 150.729 477.782 157.688C484.615 164.646 492.99 168.125 502.907 168.125C508.032 168.125 512.386 167.292 515.969 165.625C517.969 164.792 520.032 163.667 522.157 162.25C524.324 160.833 526.594 159.125 528.969 157.125V174.688C520.636 179.396 511.886 181.75 502.719 181.75C488.928 181.75 477.157 176.938 467.407 167.312C457.699 157.604 452.844 145.896 452.844 132.188C452.844 119.896 456.907 108.938 465.032 99.3125C475.032 87.5208 487.969 81.625 503.844 81.625C512.511 81.625 520.886 83.9792 528.969 88.6875ZM544.719 119.125H558.782V124.563C561.365 121.854 563.657 120 565.657 119C567.699 117.958 570.115 117.438 572.907 117.438C576.615 117.438 580.49 118.646 584.532 121.063L578.094 133.938C575.428 132.021 572.824 131.062 570.282 131.062C562.615 131.062 558.782 136.854 558.782 148.438V180H544.719V119.125ZM617.407 168.688L590.032 119.125H606.344L624.969 154.125L642.344 119.125H658.219L609.719 213.125H593.657L617.407 168.688Z" fill="white"/>
</svg>
